<svg width="80" height="60" viewBox="0 0 80 60" fill="none" xmlns="http://www.w3.org/2000/svg">
<g clip-path="url(#clip0_152_13467)">
<path d="M0 0H80V20H0V0Z" fill="#FF9933"/>
<path d="M0 20H80V40H0V20Z" fill="white"/>
<path d="M0 40H80V60H0V40Z" fill="#128807"/>
<path d="M40 38C44.4183 38 48 34.4183 48 30C48 25.5817 44.4183 22 40 22C35.5817 22 32 25.5817 32 30C32 34.4183 35.5817 38 40 38Z" fill="#000088"/>
<path d="M40 37C43.866 37 47 33.866 47 30C47 26.134 43.866 23 40 23C36.134 23 33 26.134 33 30C33 33.866 36.134 37 40 37Z" fill="white"/>
<path d="M40 31.4C40.7732 31.4 41.4 30.7732 41.4 30C41.4 29.2268 40.7732 28.6 40 28.6C39.2268 28.6 38.6 29.2268 38.6 30C38.6 30.7732 39.2268 31.4 40 31.4Z" fill="#000088"/>
<path d="M46.893 31.2732C47.0901 31.2992 47.2709 31.1604 47.2969 30.9633C47.3229 30.7662 47.1841 30.5853 46.987 30.5594C46.7898 30.5334 46.609 30.6722 46.5831 30.8693C46.5571 31.0664 46.6959 31.2473 46.893 31.2732Z" fill="#000088"/>
<path d="M40 37L40.24 32.8L40 30.8L39.76 32.8L40 37Z" fill="#000088"/>
<path d="M46.3286 33.0139C46.5123 33.09 46.7229 33.0027 46.7989 32.819C46.875 32.6353 46.7878 32.4248 46.6041 32.3487C46.4204 32.2726 46.2098 32.3598 46.1337 32.5435C46.0577 32.7272 46.1449 32.9378 46.3286 33.0139Z" fill="#000088"/>
<path d="M38.1883 36.7615L39.5071 32.7667L39.7929 30.7727L39.0435 32.6425L38.1883 36.7615Z" fill="#000088"/>
<path d="M45.3329 34.5491C45.4906 34.6702 45.7166 34.6404 45.8377 34.4827C45.9587 34.3249 45.9289 34.0989 45.7712 33.9779C45.6135 33.8569 45.3875 33.8866 45.2664 34.0444C45.1454 34.2021 45.1752 34.4281 45.3329 34.5491Z" fill="#000088"/>
<path d="M36.5 36.0622L38.8078 32.5449L39.6 30.6928L38.3921 32.3049L36.5 36.0622Z" fill="#000088"/>
<path d="M43.9738 35.7744C44.0948 35.9321 44.3208 35.9619 44.4785 35.8408C44.6363 35.7198 44.666 35.4938 44.545 35.3361C44.424 35.1783 44.198 35.1486 44.0402 35.2696C43.8825 35.3907 43.8527 35.6166 43.9738 35.7744Z" fill="#000088"/>
<path d="M35.0502 34.9497L38.1898 32.1496L39.4343 30.5657L37.8504 31.8102L35.0502 34.9497Z" fill="#000088"/>
<path d="M42.3438 36.6061C42.4199 36.7898 42.6305 36.877 42.8142 36.8009C42.9979 36.7249 43.0851 36.5143 43.009 36.3306C42.933 36.1469 42.7224 36.0597 42.5387 36.1358C42.355 36.2118 42.2678 36.4224 42.3438 36.6061Z" fill="#000088"/>
<path d="M33.9378 33.5L37.6951 31.6078L39.3072 30.4L37.4551 31.1922L33.9378 33.5Z" fill="#000088"/>
<path d="M40.5542 36.9877C40.5802 37.1848 40.761 37.3235 40.9581 37.2976C41.1552 37.2716 41.294 37.0908 41.268 36.8937C41.2421 36.6966 41.0613 36.5578 40.8641 36.5837C40.667 36.6097 40.5283 36.7905 40.5542 36.9877Z" fill="#000088"/>
<path d="M33.2385 31.8117L37.3575 30.9565L39.2272 30.2071L37.2333 30.4929L33.2385 31.8117Z" fill="#000088"/>
<path d="M38.7268 36.893C38.7008 37.0901 38.8396 37.2709 39.0367 37.2969C39.2338 37.3229 39.4147 37.1841 39.4406 36.987C39.4666 36.7898 39.3278 36.609 39.1307 36.5831C38.9336 36.5571 38.7527 36.6959 38.7268 36.893Z" fill="#000088"/>
<path d="M33 30L37.2 30.24L39.2 30L37.2 29.76L33 30Z" fill="#000088"/>
<path d="M36.9861 36.3286C36.91 36.5123 36.9973 36.7229 37.1809 36.7989C37.3646 36.875 37.5752 36.7878 37.6513 36.6041C37.7274 36.4204 37.6402 36.2098 37.4565 36.1338C37.2728 36.0577 37.0622 36.1449 36.9861 36.3286Z" fill="#000088"/>
<path d="M33.2385 28.1883L37.2333 29.5071L39.2273 29.7929L37.3575 29.0435L33.2385 28.1883Z" fill="#000088"/>
<path d="M35.4509 35.3329C35.3298 35.4906 35.3596 35.7166 35.5173 35.8377C35.675 35.9587 35.901 35.9289 36.0221 35.7712C36.1431 35.6135 36.1134 35.3875 35.9556 35.2664C35.7979 35.1454 35.5719 35.1752 35.4509 35.3329Z" fill="#000088"/>
<path d="M33.9378 26.5L37.4551 28.8079L39.3072 29.6L37.6951 28.3922L33.9378 26.5Z" fill="#000088"/>
<path d="M34.2256 33.9738C34.0679 34.0948 34.0381 34.3208 34.1592 34.4786C34.2802 34.6363 34.5062 34.666 34.6639 34.545C34.8217 34.424 34.8514 34.198 34.7304 34.0402C34.6093 33.8825 34.3833 33.8528 34.2256 33.9738Z" fill="#000088"/>
<path d="M35.0503 25.0503L37.8504 28.1898L39.4343 29.4343L38.1898 27.8504L35.0503 25.0503Z" fill="#000088"/>
<path d="M33.3939 32.3439C33.2102 32.42 33.123 32.6305 33.199 32.8142C33.2751 32.9979 33.4857 33.0851 33.6694 33.0091C33.8531 32.933 33.9403 32.7224 33.8642 32.5387C33.7881 32.355 33.5776 32.2678 33.3939 32.3439Z" fill="#000088"/>
<path d="M36.5 23.9378L38.3921 27.6951L39.6 29.3072L38.8078 27.4551L36.5 23.9378Z" fill="#000088"/>
<path d="M33.0123 30.5542C32.8152 30.5802 32.6764 30.761 32.7024 30.9581C32.7283 31.1552 32.9092 31.294 33.1063 31.2681C33.3034 31.2421 33.4422 31.0613 33.4162 30.8641C33.3903 30.667 33.2094 30.5283 33.0123 30.5542Z" fill="#000088"/>
<path d="M38.1882 23.2385L39.0435 27.3575L39.7929 29.2273L39.5071 27.2333L38.1882 23.2385Z" fill="#000088"/>
<path d="M33.107 28.7268C32.9099 28.7008 32.729 28.8396 32.7031 29.0367C32.6771 29.2338 32.8159 29.4147 33.013 29.4406C33.2101 29.4666 33.391 29.3278 33.4169 29.1307C33.4429 28.9336 33.3041 28.7527 33.107 28.7268Z" fill="#000088"/>
<path d="M40 23L39.76 27.2L40 29.2L40.24 27.2L40 23Z" fill="#000088"/>
<path d="M33.6714 26.9861C33.4877 26.91 33.2771 26.9973 33.201 27.181C33.125 27.3647 33.2122 27.5752 33.3959 27.6513C33.5796 27.7274 33.7901 27.6402 33.8662 27.4565C33.9423 27.2728 33.8551 27.0622 33.6714 26.9861Z" fill="#000088"/>
<path d="M41.8117 23.2385L40.4929 27.2333L40.2071 29.2273L40.9565 27.3575L41.8117 23.2385Z" fill="#000088"/>
<path d="M34.6671 25.4509C34.5094 25.3298 34.2834 25.3596 34.1623 25.5173C34.0413 25.6751 34.071 25.9011 34.2288 26.0221C34.3865 26.1431 34.6125 26.1134 34.7335 25.9556C34.8546 25.7979 34.8248 25.5719 34.6671 25.4509Z" fill="#000088"/>
<path d="M43.5 23.9378L41.1922 27.4551L40.4 29.3072L41.6078 27.6951L43.5 23.9378Z" fill="#000088"/>
<path d="M36.0262 24.2256C35.9052 24.0679 35.6792 24.0381 35.5214 24.1592C35.3637 24.2802 35.334 24.5062 35.455 24.6639C35.576 24.8217 35.802 24.8514 35.9598 24.7304C36.1175 24.6093 36.1472 24.3834 36.0262 24.2256Z" fill="#000088"/>
<path d="M44.9497 25.0503L41.8102 27.8504L40.5657 29.4343L42.1496 28.1898L44.9497 25.0503Z" fill="#000088"/>
<path d="M37.6561 23.3939C37.58 23.2102 37.3695 23.123 37.1858 23.1991C37.0021 23.2751 36.9149 23.4857 36.9909 23.6694C37.067 23.8531 37.2776 23.9403 37.4613 23.8642C37.645 23.7882 37.7322 23.5776 37.6561 23.3939Z" fill="#000088"/>
<path d="M46.0622 26.5L42.3049 28.3922L40.6928 29.6L42.5449 28.8078L46.0622 26.5Z" fill="#000088"/>
<path d="M39.4458 23.0123C39.4198 22.8152 39.239 22.6765 39.0419 22.7024C38.8448 22.7284 38.706 22.9092 38.7319 23.1063C38.7579 23.3034 38.9387 23.4422 39.1359 23.4163C39.333 23.3903 39.4717 23.2095 39.4458 23.0123Z" fill="#000088"/>
<path d="M46.7615 28.1883L42.6425 29.0435L40.7727 29.7929L42.7667 29.5071L46.7615 28.1883Z" fill="#000088"/>
<path d="M41.2732 23.107C41.2992 22.9099 41.1604 22.7291 40.9633 22.7031C40.7662 22.6771 40.5853 22.8159 40.5594 23.013C40.5334 23.2102 40.6722 23.391 40.8693 23.4169C41.0664 23.4429 41.2473 23.3041 41.2732 23.107Z" fill="#000088"/>
<path d="M47 30L42.8 29.76L40.8 30L42.8 30.24L47 30Z" fill="#000088"/>
<path d="M43.0139 23.6714C43.09 23.4877 43.0027 23.2771 42.8191 23.2011C42.6354 23.125 42.4248 23.2122 42.3487 23.3959C42.2726 23.5796 42.3598 23.7902 42.5435 23.8662C42.7272 23.9423 42.9378 23.8551 43.0139 23.6714Z" fill="#000088"/>
<path d="M46.7615 31.8117L42.7667 30.4929L40.7727 30.2071L42.6425 30.9565L46.7615 31.8117Z" fill="#000088"/>
<path d="M44.5491 24.6671C44.6702 24.5094 44.6404 24.2834 44.4827 24.1623C44.3249 24.0413 44.0989 24.0711 43.9779 24.2288C43.8569 24.3865 43.8866 24.6125 44.0444 24.7336C44.2021 24.8546 44.4281 24.8248 44.5491 24.6671Z" fill="#000088"/>
<path d="M46.0622 33.5L42.5449 31.1921L40.6928 30.4L42.3049 31.6078L46.0622 33.5Z" fill="#000088"/>
<path d="M45.7744 26.0262C45.9321 25.9052 45.9619 25.6792 45.8408 25.5214C45.7198 25.3637 45.4938 25.334 45.3361 25.455C45.1783 25.576 45.1486 25.802 45.2696 25.9598C45.3907 26.1175 45.6166 26.1472 45.7744 26.0262Z" fill="#000088"/>
<path d="M44.9497 34.9497L42.1496 31.8102L40.5657 30.5657L41.8102 32.1496L44.9497 34.9497Z" fill="#000088"/>
<path d="M46.6061 27.6561C46.7898 27.58 46.877 27.3695 46.8009 27.1858C46.7249 27.0021 46.5143 26.9149 46.3306 26.9909C46.1469 27.067 46.0597 27.2776 46.1358 27.4613C46.2118 27.645 46.4224 27.7322 46.6061 27.6561Z" fill="#000088"/>
<path d="M43.5 36.0622L41.6078 32.3049L40.4 30.6928L41.1922 32.5449L43.5 36.0622Z" fill="#000088"/>
<path d="M46.9876 29.4458C47.1848 29.4198 47.3235 29.239 47.2976 29.0419C47.2716 28.8448 47.0908 28.706 46.8937 28.7319C46.6965 28.7579 46.5578 28.9387 46.5837 29.1359C46.6097 29.333 46.7905 29.4717 46.9876 29.4458Z" fill="#000088"/>
<path d="M41.8117 36.7615L40.9565 32.6425L40.2071 30.7727L40.4929 32.7667L41.8117 36.7615Z" fill="#000088"/>
</g>
</svg>
