<svg width="80" height="60" viewBox="0 0 80 60" fill="none" xmlns="http://www.w3.org/2000/svg">
<mask id="mask0_152_12672" style="mask-type:luminance" maskUnits="userSpaceOnUse" x="-1" y="0" width="82" height="61">
<path d="M-0.00156403 0.00312805H80.0023V60.0031H-0.00156403V0.00312805Z" fill="white"/>
</mask>
<g mask="url(#mask0_152_12672)">
<path fill-rule="evenodd" clip-rule="evenodd" d="M-0.00156403 0.00312805H80.0141V60.0031H-0.00156403V0.00312805Z" fill="white"/>
<path fill-rule="evenodd" clip-rule="evenodd" d="M8.76482 18.2268L17.0875 5.74747L19.1674 7.13458L10.8447 19.6139L8.76482 18.2268ZM11.8846 20.3075L20.2073 7.82813L22.2872 9.21525L13.9645 21.6946L11.8846 20.3075ZM15.0045 22.3881L23.3271 9.9088L25.407 11.2959L17.0844 23.7752L15.0045 22.3881Z" fill="#000001"/>
<path fill-rule="evenodd" clip-rule="evenodd" d="M54.5223 48.7432L62.845 36.2639L64.9249 37.651L56.6022 50.1303L54.5223 48.7432ZM57.6421 50.8239L65.9648 38.3446L68.0447 39.7317L59.722 52.211L57.6421 50.8239ZM60.762 52.9046L69.0846 40.4253L71.1645 41.8124L62.8419 54.2917L60.762 52.9046Z" fill="#000001"/>
<path fill-rule="evenodd" clip-rule="evenodd" d="M57.6437 41.81L68.0431 48.7456Z" fill="black"/>
<path d="M57.6437 41.81L68.0431 48.7456" stroke="white" stroke-width="1.25"/>
<path fill-rule="evenodd" clip-rule="evenodd" d="M27.4854 21.6969C29.6927 18.3872 33.1244 16.0899 37.0255 15.3104C40.9266 14.5308 44.9776 15.333 48.2873 17.5403C51.5971 19.7476 53.8944 23.1793 54.6739 27.0804C55.4534 30.9815 54.6513 35.0325 52.444 38.3422L27.4854 21.6969Z" fill="#CD2E3A"/>
<path fill-rule="evenodd" clip-rule="evenodd" d="M27.4854 21.6969C25.278 25.0066 24.4759 29.0576 25.2555 32.9588C26.035 36.8599 28.3323 40.2916 31.642 42.4989C34.9517 44.7062 39.0027 45.5083 42.9039 44.7288C46.805 43.9493 50.2367 41.652 52.444 38.3422C53.5476 36.6874 53.9487 34.6619 53.5589 32.7113C53.1692 30.7608 52.0205 29.0449 50.3657 27.9413C48.7108 26.8376 46.6853 26.4365 44.7347 26.8263C42.7842 27.2161 41.0683 28.3647 39.9647 30.0196L27.4854 21.6969Z" fill="#0047A0"/>
<path d="M39.9647 30.0196C42.2629 26.5735 41.3324 21.9168 37.8864 19.6186C34.4403 17.3203 29.7836 18.2508 27.4854 21.6969C25.1871 25.143 26.1176 29.7997 29.5637 32.0979C33.0097 34.3961 37.6664 33.4656 39.9647 30.0196Z" fill="#CD2E3A"/>
<path fill-rule="evenodd" clip-rule="evenodd" d="M17.1219 54.2964L8.79921 41.8171L10.8791 40.43L19.2018 52.9093L17.1219 54.2964ZM20.2417 52.2158L11.919 39.7365L13.9989 38.3493L22.3216 50.8287L20.2417 52.2158ZM23.3615 50.1351L15.0389 37.6558L17.1188 36.2687L25.4414 48.748L23.3615 50.1351Z" fill="#000001"/>
<path fill-rule="evenodd" clip-rule="evenodd" d="M62.8794 23.78L54.5567 11.3007L56.6366 9.91356L64.9593 22.3929L62.8794 23.78ZM65.9992 21.6993L57.6765 9.22L59.7564 7.83289L68.0791 20.3122L65.9992 21.6993ZM69.119 19.6186L60.7964 7.13933L62.8762 5.75222L71.1989 18.2315L69.119 19.6186Z" fill="#000001"/>
<path fill-rule="evenodd" clip-rule="evenodd" d="M15.5604 46.3229L18.6802 44.2422ZM57.6781 18.2339L61.3179 15.8064ZM64.4377 13.7258L67.5576 11.6451Z" fill="black"/>
<path d="M15.5604 46.3229L18.6802 44.2422M57.6781 18.2339L61.3179 15.8064M64.4377 13.7258L67.5576 11.6451" stroke="white" stroke-width="1.25"/>
</g>
</svg>
