<svg width="80" height="60" viewBox="0 0 80 60" fill="none" xmlns="http://www.w3.org/2000/svg">
<g clip-path="url(#clip0_152_13587)">
<path fill-rule="evenodd" clip-rule="evenodd" d="M0 0H80V60H0V0Z" fill="#E30A17"/>
<path fill-rule="evenodd" clip-rule="evenodd" d="M50.875 30.9375C50.875 39.2125 44.05 45.925 35.625 45.925C27.2 45.925 20.375 39.2125 20.375 30.925C20.375 22.6375 27.2 15.95 35.625 15.95C44.05 15.95 50.875 22.6625 50.875 30.9375Z" fill="white"/>
<path fill-rule="evenodd" clip-rule="evenodd" d="M51.625 30.9375C51.625 37.5625 46.175 42.925 39.4375 42.925C32.7 42.925 27.2375 37.55 27.2375 30.925C27.2375 24.3 32.7 18.95 39.4375 18.95C46.175 18.95 51.6375 24.3125 51.6375 30.9375H51.625Z" fill="#E30A17"/>
<path fill-rule="evenodd" clip-rule="evenodd" d="M53.8375 23.9375L53.7125 29.475L48.55 30.875L53.65 32.6875L53.525 37.775L56.8375 33.8L61.8625 35.55L58.9625 31.2875L62.5 27.05L57.0625 28.55L53.8375 23.925V23.9375Z" fill="white"/>
</g>
</svg>
