<svg width="20" height="21" viewBox="0 0 20 21" fill="none" xmlns="http://www.w3.org/2000/svg">
<path d="M10 0.0136719C4.4772 0.0136719 0 4.49067 0 10.0137C0 15.5367 4.4772 20.0137 10 20.0137C15.5228 20.0137 20 15.5367 20 10.0137C20 4.49067 15.5228 0.0136719 10 0.0136719ZM10 2.01367C14.4183 2.01367 18 5.59567 18 10.0137C18 14.4317 14.4183 18.0137 10 18.0137C5.5817 18.0137 2 14.4317 2 10.0137C2 5.59567 5.5817 2.01367 10 2.01367ZM10 5.01367C9.4477 5.01367 9 5.46167 9 6.01367C9 6.56567 9.4477 7.01367 10 7.01367C10.5523 7.01367 11 6.56567 11 6.01367C11 5.46167 10.5523 5.01367 10 5.01367ZM10 8.01367C9.4477 8.01367 9 8.46167 9 9.01367V14.0137C9 14.5657 9.4477 15.0137 10 15.0137C10.5523 15.0137 11 14.5657 11 14.0137V9.01367C11 8.46167 10.5523 8.01367 10 8.01367Z" fill="#2A343D"/>
</svg>
