<svg width="80" height="60" viewBox="0 0 80 60" fill="none" xmlns="http://www.w3.org/2000/svg">
<g clip-path="url(#clip0_152_12682)">
<path d="M0 0H80V60H0V0Z" fill="#EE1C25"/>
<path d="M9.60007 22.2L15 6L20.3999 22.2L6.00011 12.3H23.9999L9.60007 22.2Z" fill="#FFFF00"/>
<path d="M33.0214 6.31046L27.4641 7.54197L31.171 3.22239L30.8074 9.03598L27.7235 3.8892L33.0214 6.31046Z" fill="#FFFF00"/>
<path d="M38.6299 13.4184L33.03 12.3982L38.122 9.85442L35.5322 15.072L34.6858 9.13197L38.6299 13.4184Z" fill="#FFFF00"/>
<path d="M37.8125 23.3905L33.1157 20.1751L38.8024 19.9293L34.3098 23.6369L35.9596 17.8682L37.8125 23.3905Z" fill="#FFFF00"/>
<path d="M30.7486 29.9051L27.6581 25.1251L32.9985 27.0948L27.4225 28.7795L31.1723 24.0956L30.7486 29.9051Z" fill="#FFFF00"/>
</g>
</svg>
