<svg width="80" height="60" viewBox="0 0 80 60" fill="none" xmlns="http://www.w3.org/2000/svg">
<mask id="mask0_152_13466" style="mask-type:luminance" maskUnits="userSpaceOnUse" x="0" y="0" width="80" height="60">
<path d="M0 0H79.9922V60H0V0Z" fill="white"/>
</mask>
<g mask="url(#mask0_152_13466)">
<path fill-rule="evenodd" clip-rule="evenodd" d="M-5.00391 0H84.9961V60H-5.00391V0Z" fill="#165D31"/>
<path fill-rule="evenodd" clip-rule="evenodd" d="M17.6719 17.0039C17.5781 18.4102 17.4375 20.8711 18.6445 21.1289C20.0859 21.2695 19.2891 18.6914 19.8164 18.2227C19.9102 17.9883 20.0859 17.9883 20.0977 18.2813V20.4727C20.0977 21.1758 20.5664 21.3867 20.918 21.5274C21.293 21.5039 21.5508 21.5274 21.6914 21.8789L21.8789 25.6641C21.8789 25.6641 22.7461 25.9219 22.793 23.543C22.8281 22.1367 22.5117 20.9766 22.6992 20.707C22.6992 20.4375 23.0508 20.4258 23.2852 20.5547C23.6602 20.8125 23.8242 21.1406 24.4102 21.0234C25.3008 20.7656 25.8398 20.332 25.8516 19.6524C25.834 18.9844 25.695 18.3252 25.4414 17.707C25.4883 17.5899 25.2773 17.2734 25.3242 17.1563C25.4766 17.4141 25.7227 17.3906 25.7695 17.1563C25.6172 16.6641 25.3828 16.1836 25.0078 15.9844C24.6914 15.7031 24.2227 15.75 24.0703 16.3359C23.9766 17.0039 24.3047 17.7891 24.7852 18.4453C24.8906 18.6914 25.0313 19.1133 24.9727 19.4883C24.7148 19.6406 24.457 19.5703 24.2344 19.3477C24.2344 19.3477 23.5313 18.8203 23.5313 18.6914C23.7188 17.4961 23.5664 17.3555 23.4609 17.0156C23.3906 16.5586 23.168 16.4063 22.9922 16.1016C22.8164 15.9141 22.582 15.9141 22.4648 16.1016C22.1484 16.6406 22.3008 17.8008 22.5234 18.3281C22.6875 18.8086 22.9336 19.1133 22.8164 19.1133C22.7227 19.3828 22.5234 19.3125 22.3711 18.9961C22.1996 18.3302 22.1169 17.6446 22.125 16.957C22.0664 16.418 21.9961 15.2695 21.6328 14.9649C21.4219 14.6836 21.1055 14.8242 20.9883 15.082C20.9573 15.6056 20.9691 16.1307 21.0234 16.6524C21.2578 17.5195 21.3398 18.293 21.457 19.1719C21.4922 20.3555 20.7773 19.6875 20.8125 19.0899C20.9662 18.3385 20.9542 17.5627 20.7773 16.8164C20.6602 16.5117 20.5313 16.4414 20.2383 16.4883C20.0156 16.4883 19.4414 17.1094 19.2773 18.1641C19.2773 18.1641 19.1367 18.7031 19.0781 19.1836C18.9961 19.7227 18.6445 20.1211 18.3867 19.1133C18.1758 18.375 18.0352 16.582 17.6836 17.0039H17.6719Z" fill="white"/>
<path fill-rule="evenodd" clip-rule="evenodd" d="M21.5977 22.7578L17.8477 24.5625C17.8828 23.707 19.6172 22.1719 20.8125 22.1602C21.5742 22.1719 21.3867 22.4531 21.5859 22.7578H21.5977Z" fill="white"/>
<path fill-rule="evenodd" clip-rule="evenodd" d="M20.9297 23.9297C18.9609 29.0273 25.5586 29.7422 26.2969 24.1406C26.3672 23.9063 26.6484 23.6836 26.6953 24.0586C26.543 29.1328 21.5859 29.4727 20.7422 27.8789C20.5437 27.3305 20.4445 26.7512 20.4492 26.168C20.332 25.1719 19.8047 25.5586 19.7227 26.543C19.6406 27.0938 19.6641 27.2461 19.6641 27.7734C19.9219 31.7813 26.3086 30.0586 27.3516 26.7539C27.9023 24.9258 27.2578 23.5781 27.5508 23.5781C28.1836 24.2578 29.0742 23.6719 29.2734 23.4375C29.3555 23.3203 29.5664 23.2383 29.707 23.3906C30.1992 23.7422 31.0664 23.5781 31.2539 22.957C31.3594 22.3359 31.4414 21.7031 31.4648 21.0586C31.0547 21.1758 30.7617 21.2578 30.7266 21.4336L30.6445 21.9727C30.6094 22.1484 30.2695 22.1484 30.2461 21.9258C30.0938 21.2227 29.4609 21.1406 29.0742 22.2188C28.8281 22.4297 28.3594 22.4766 28.3125 22.1602C28.3711 21.4336 28.0781 21.3398 27.4922 21.6797L26.9297 17.4375C27.1641 17.4375 27.3984 17.6133 27.6211 17.332C27.3867 16.5703 26.8594 15.0234 26.5664 14.9063C26.4375 14.7422 26.3203 14.8477 26.1328 14.8945C25.8281 14.9883 25.5469 15.2461 25.6406 15.7617C25.9922 17.9648 26.2266 19.6406 26.5898 21.8555C26.6484 22.1016 26.4375 22.4414 26.1563 22.4063C25.6875 22.0898 25.5703 21.4453 24.75 21.4688C24.1641 21.4688 23.5078 22.1133 23.4258 22.7227C23.3203 23.2148 23.2852 23.7422 23.4258 24.1641C23.8359 24.6563 24.3281 24.6094 24.7617 24.5039C25.1133 24.3516 25.4063 24 25.5352 24.082C25.6172 24.1875 25.5469 25.3594 23.8594 26.25C22.8398 26.7188 22.0195 26.8125 21.5859 25.9805C21.3164 25.4531 21.6094 23.4727 20.9297 23.9297Z" fill="white"/>
<path fill-rule="evenodd" clip-rule="evenodd" d="M29.332 18.75C29.7188 18.6094 31.5938 16.4531 31.5938 16.4531L31.3125 16.2188C31.207 16.1367 31.2187 16.043 31.3125 15.9609C31.7812 15.6797 31.6289 15.0938 31.3945 14.8125C31.2354 14.7349 31.0604 14.6956 30.8834 14.6976C30.7064 14.6997 30.5323 14.743 30.375 14.8242C30.0469 15.1406 29.9766 15.6445 30.2344 15.9492C30.4805 16.0664 30.7266 16.3242 30.5625 16.4648C29.7891 17.2852 27.6914 18.7031 27.9375 18.75C27.9844 18.8203 29.2852 18.8203 29.3203 18.75H29.332ZM17.9648 26.3672C17.2617 27.4922 17.2031 29.168 17.5898 29.6719C17.8008 29.9063 18.1406 30.0117 18.3867 29.9297C18.832 29.7422 19.0313 28.8398 18.9258 28.5234C18.7734 28.2891 18.6563 28.2539 18.5039 28.4414C18.1992 29.0742 18.0703 28.6406 18.0352 28.2891C18.0016 27.6937 18.033 27.0964 18.1289 26.5078C18.2109 26.0156 18.1289 26.1563 17.9648 26.3672ZM48.0938 24.5742C47.4141 23.0977 46.4648 21.6445 46.1719 21.0938C45.2586 19.6501 44.2891 18.2428 43.2656 16.875C42.5391 16.0078 44.4609 17.2383 43.0312 15.5039L41.9883 14.625C41.7539 14.4609 41.1914 14.1563 41.0977 14.6484C41.0508 15.0938 41.0742 15.3281 41.1445 15.6914C41.2031 15.9258 41.5547 16.3359 41.7305 16.5703C44.133 19.7525 46.2431 23.1452 48.0352 26.707C48.3398 26.5547 48.2695 24.8203 48.0938 24.5742Z" fill="white"/>
<path fill-rule="evenodd" clip-rule="evenodd" d="M45.1055 29.4727C44.9648 29.625 45.4336 30.2695 46.043 30.2695C47.0508 30.1523 47.9414 29.5898 48.7617 28.0898C49.095 27.5909 49.3077 27.0211 49.3828 26.4258C49.4821 23.581 49.254 20.7341 48.7031 17.9414C48.668 17.707 48.7031 17.4258 48.7266 17.3555C48.7969 17.2734 49.0195 17.3555 49.1367 17.1562C49.3125 16.9805 48.668 15.5156 48.3164 14.9648C48.1992 14.707 48.1406 14.543 47.9297 14.9883C47.6751 15.4796 47.5539 16.0292 47.5781 16.582C48.0586 19.9219 48.2109 22.8398 48.5156 26.1797C48.5508 26.5078 48.5039 26.9766 48.2812 27.1641C47.397 28.1486 46.3148 28.9353 45.1055 29.4727ZM58.7578 29.4609C58.0312 29.8828 58.0312 30.3633 58.6172 30.375C59.625 30.2578 60.8203 30.1758 61.6406 28.9336C61.9304 28.3485 62.0978 27.7105 62.1328 27.0586C62.2803 24.2576 62.0955 21.4489 61.582 18.6914C61.5586 18.457 61.4531 17.9062 61.4883 17.8359C61.5586 17.6719 61.8867 17.8477 62.0039 17.6602C62.168 17.4844 61.1484 16.1719 60.7852 15.6094C60.668 15.3516 60.6211 15.1875 60.3984 15.6328C60.1624 16.1287 60.0886 16.6863 60.1875 17.2266C60.7266 20.8594 61.125 23.5781 61.207 26.7891C61.1602 27.0937 61.1484 27.2578 61.0078 27.6445C60.6914 28.043 60.3398 28.5586 60.0117 28.8047C59.6836 29.0391 58.9805 29.2734 58.7578 29.4609Z" fill="white"/>
<path fill-rule="evenodd" clip-rule="evenodd" d="M59.2969 26.2148C59.2969 25.3594 59.3086 24.6328 59.2852 23.9883C59.2776 23.4424 59.1579 22.9039 58.9336 22.4063C58.7227 21.9258 58.8516 21.5391 58.7461 21.0234C58.6523 20.5078 58.6758 19.7344 58.5352 19.1367C58.4883 18.9023 58.3711 18.1406 58.4063 18.0586C58.4648 17.8945 58.6875 18.0586 58.8047 17.8711C58.9688 17.6953 58.2188 15.7617 57.8438 15.2109C57.7148 14.9648 57.457 15.0469 57.1641 15.4453C56.8711 15.7148 56.9766 16.3125 57.0938 16.8867C57.8086 20.6719 58.3594 24.1055 58.2422 27.7031C58.1953 28.0078 59.2969 26.7891 59.2969 26.2148ZM53.9414 21.5273C53.4844 21.5039 52.5352 20.625 52.2539 20.1211C52.2079 19.9979 52.1883 19.8665 52.1963 19.7353C52.2044 19.604 52.24 19.476 52.3008 19.3594C52.4766 19.2422 52.7344 19.125 52.9336 19.2422C52.9336 19.2422 53.1328 19.5234 53.0977 19.5586C53.332 19.6758 53.4492 19.6172 53.4727 19.5117C53.4844 19.3359 53.4023 19.2305 53.4023 19.043C53.5078 18.5039 54.1055 18.4219 54.3398 18.7617C54.5039 18.9727 54.5742 19.4063 54.5859 19.6992C54.5859 19.8516 54.3516 19.6758 54.1992 19.6992C54.0703 19.7461 54.0352 19.9102 54.0234 20.0508C54 20.4375 53.9531 21.0586 53.9414 21.5156V21.5273ZM45.5273 27.1523C45.6445 26.0039 45.4805 23.9531 45.4688 23.2734C45.4061 21.5254 45.2614 19.7813 45.0352 18.0469C44.8945 17.0625 45.4336 18.1523 45.3633 17.5781C45.1875 16.6055 44.6484 15.9375 44.0039 15.0586C43.8047 14.7656 43.8047 14.707 43.4883 15.1289C43.1367 15.9141 43.4414 16.4648 43.5352 17.0859C43.9922 19.1016 44.2617 20.9531 44.3906 22.793C44.5257 24.7042 44.5413 26.622 44.4375 28.5352C44.7891 28.5469 45.3281 27.9844 45.5273 27.1523Z" fill="white"/>
<path fill-rule="evenodd" clip-rule="evenodd" d="M60.8555 25.3125C60.0469 23.9531 58.8398 22.5 58.5117 21.9492C57.4251 20.4317 56.2837 18.9542 55.0898 17.5195C54.0937 16.4648 55.5586 17.3438 54.9023 16.5234C54.3516 15.9258 54.1992 15.7266 53.7187 15.3633C53.4844 15.2109 53.3437 14.918 53.25 15.4219C53.2126 15.8584 53.2048 16.2969 53.2266 16.7344C53.2266 16.9336 53.4375 17.3203 53.625 17.5547C56.0508 20.543 58.7109 23.5898 60.8437 27.4219C61.1484 27.2695 61.043 25.5469 60.8437 25.3125H60.8555Z" fill="white"/>
<path fill-rule="evenodd" clip-rule="evenodd" d="M24.3633 22.8164C24.3047 22.9219 24.1758 23.0508 24.2227 23.1797C24.3047 23.2969 24.3867 23.332 24.5273 23.332C24.6563 23.332 24.8438 23.3672 24.8789 23.2969C24.9492 23.2148 24.9961 23.0625 24.9492 22.9102C24.8086 22.5586 24.4336 22.6992 24.3633 22.8164Z" fill="#165D31"/>
<path fill-rule="evenodd" clip-rule="evenodd" d="M51.5039 42.4805C52.582 42.5273 53.2852 42.5391 54.2344 42.6445L55.3594 42.5273C56.6016 42.4102 56.6484 44.2969 56.6484 44.2969C56.6484 45.4102 56.2148 45.4688 55.6641 45.5859C55.3477 45.6328 55.1953 45.3984 55.0195 45.1641C54.7545 45.249 54.4722 45.2651 54.1992 45.2109C53.7422 45.1875 53.2969 45.1875 52.8516 45.1523C52.3828 45.1172 52.125 45.2109 51.6445 45.1641C51.5508 45.3164 51.4102 45.5273 51.1289 45.4688C50.8945 45.4336 50.6016 44.7656 50.6836 44.2383C50.8594 43.8633 50.8008 43.9922 50.8008 43.8281C46.3945 43.7109 41.9531 43.5117 37.6406 43.5703C34.2656 43.582 30.9375 43.7227 27.5977 43.8633C25.8164 43.8398 24.457 43.5586 23.5195 42.1875C23.6133 42.1875 28.0664 42.4336 29.3672 42.3516C31.7695 42.3281 33.9727 42.1289 36.4219 42.0586C41.25 42.1406 46.043 42.1406 50.8711 42.4805C50.4023 42.1641 50.4023 41.4258 51.1055 41.2383C51.1641 41.1914 51.1992 41.6016 51.3047 41.5898C51.8789 41.5547 51.6211 42.3281 51.5039 42.4805ZM32.0977 15.8555C31.3711 17.9414 32.5195 20.2383 33.3164 20.0156C33.9023 20.25 34.2539 19.1484 34.4883 17.9531C34.6641 17.6133 34.7812 17.5781 34.8633 17.7539C34.8398 19.3477 34.9805 19.7109 35.3906 20.1914C36.3047 20.8945 37.0664 20.2852 37.125 20.2266L37.8281 19.5117C37.9922 19.3359 38.2031 19.3359 38.4258 19.4766C38.6484 19.6758 38.6133 20.0156 39.082 20.25C39.4805 20.4141 40.3125 20.2969 40.5117 19.957C40.7695 19.5 40.8398 19.3477 40.957 19.1836C41.1445 18.9375 41.4609 19.043 41.4609 19.125C41.4258 19.2656 41.2383 19.3945 41.3672 19.6523C41.6016 19.8164 41.6484 19.7109 41.7773 19.6758C42.2461 19.4414 42.5977 18.4336 42.5977 18.4336C42.6094 18.0586 42.3984 18.082 42.2578 18.1758L41.8945 18.4219C41.6602 18.457 41.2266 18.6094 41.0039 18.2695C40.7813 17.8711 40.7812 17.2969 40.6172 16.8867C40.6172 16.8633 40.3125 16.2422 40.5938 16.207C40.7344 16.2305 41.0273 16.3125 41.0742 16.0664C41.2148 15.8203 40.7695 15.1289 40.4531 14.7773C40.1836 14.4844 39.8086 14.4492 39.4453 14.7539C39.1875 14.9883 39.2227 15.2461 39.1758 15.4922C39.1313 15.6685 39.1294 15.8529 39.1701 16.0302C39.2109 16.2074 39.2932 16.3725 39.4102 16.5117C39.668 17.0039 40.125 17.6484 39.9727 18.5625C39.9727 18.5625 39.7031 18.9844 39.2344 18.9258C39.0352 18.8906 38.7187 18.8086 38.5547 17.543C38.4258 16.6055 38.5781 15.2695 38.1797 14.6484C38.0273 14.2617 37.9219 13.8984 37.5703 14.543C37.4766 14.8008 37.0664 15.1875 37.3594 15.9727C37.6366 16.6802 37.7176 17.4495 37.5937 18.1992C37.418 18.457 37.3828 18.5391 37.1602 18.7852C36.8555 19.1367 36.5156 19.043 36.2578 18.9141C36.0234 18.7617 35.8359 18.6797 35.7187 18.1523C35.7422 17.332 35.7891 15.9844 35.6367 15.7031C35.4141 15.2578 35.0508 15.4219 34.8984 15.5625C34.2013 16.3369 33.7346 17.2908 33.5508 18.3164C33.3398 18.9961 33.1172 18.7969 32.9648 18.5273C32.5898 18.1758 32.5547 15.3984 32.0977 15.8555Z" fill="white"/>
<path fill-rule="evenodd" clip-rule="evenodd" d="M34.3008 20.4023C34.6406 20.168 34.4883 20.0039 34.9805 20.4961C35.6158 21.6202 35.9846 22.875 36.0586 24.1641C36.0352 24.4688 36.2461 24.6563 36.3516 24.5859C36.3984 23.8828 38.1211 22.8984 39.7031 22.7578C39.9375 22.6992 39.8203 22.2422 39.8555 22.0078C39.7617 21.1289 40.3477 20.332 41.168 20.2734C42.293 20.4375 42.668 21.0352 42.6914 21.9375C42.5625 23.6953 40.7344 23.9883 39.7148 24.1289C39.5625 24.1875 39.4922 24.2578 39.7148 24.3398L44.0039 24.3633L44.2266 24.4805C44.25 24.5977 44.1562 24.5039 43.9922 24.7852C43.7562 25.1997 43.6086 25.6585 43.5586 26.1328C42.2812 26.5547 40.957 26.7188 39.6211 26.8945C39.1523 27.1289 38.918 27.4453 39.0117 27.7969C39.1758 28.1836 40.207 28.582 40.207 28.5938C40.4062 28.7109 40.6289 29.0039 40.1484 29.6016C38.0625 29.5078 36.4336 28.6172 35.8711 27.3633C35.707 27.2344 35.5195 27.3633 35.4023 27.5273C34.582 28.582 33.7852 29.5195 32.3906 30.0352C31.5703 30.2461 30.7148 29.9063 30.3164 29.3672C30.0469 29.0508 30.0586 28.7109 29.9648 28.6406C29.5078 28.8398 25.6406 30.4805 26.1328 29.707C27.0703 28.7109 28.7109 27.9609 30.1406 26.9766C30.2461 26.6367 30.4336 25.5117 30.9961 25.1484C31.0312 25.1484 30.9141 25.8047 30.9258 26.0859C30.9258 26.3203 30.9023 26.4023 30.9492 26.3438C31.0547 26.2852 32.7891 24.9141 32.9414 24.4922C33.1055 24.2578 32.9766 23.6484 32.9766 23.625C32.6484 22.7813 32.1914 22.7109 32.0273 22.2891C31.875 21.7383 31.9453 21.1055 32.2617 20.918C32.543 20.6719 32.8711 20.6953 33.1875 20.9766C33.5391 21.293 33.8437 21.9141 33.9375 22.3711C33.8789 22.5469 33.4687 22.2539 33.3516 22.3359C33.5771 22.5951 33.7271 22.9113 33.7852 23.25C34.0195 24.2109 33.9492 24.5859 33.7148 25.207C32.9414 26.8359 31.957 27.3164 31.0898 27.9258C31.0664 27.9258 31.0547 28.3359 31.3711 28.5586C31.4883 28.6758 31.9453 28.7344 32.4727 28.5586C33.5993 27.9329 34.5103 26.9811 35.0859 25.8281C35.1855 24.9508 35.0895 24.0623 34.8047 23.2266C34.4648 22.4414 34.0664 21.3281 34.0664 21.3047C34.0547 20.8125 34.0898 20.6484 34.3008 20.4023ZM23.0742 15.8789C23.5664 16.1133 24.5039 16.0078 24.457 15.2109L24.4336 14.8477C24.3398 14.6133 24.0586 14.6719 24 14.9063C23.9766 14.9883 24.0352 15.1172 23.9648 15.1523C23.918 15.1992 23.7656 15.1758 23.7656 14.9531C23.7656 14.8828 23.7188 14.8125 23.6836 14.7656C23.6602 14.7422 23.6367 14.7422 23.5781 14.7422C23.5078 14.7422 23.5078 14.7539 23.4727 14.8125C23.4609 14.8711 23.4375 14.9297 23.4375 15C23.4375 15.082 23.3906 15.1055 23.3437 15.1172C23.2734 15.1172 23.2852 15.1172 23.2266 15.0938C23.2031 15.0586 23.168 15.0469 23.168 14.9766L23.1328 14.7891C23.1094 14.7539 23.0625 14.7305 23.0156 14.7188C22.7461 14.7188 22.7227 15.0352 22.7461 15.1523C22.7227 15.1758 22.7109 15.7266 23.0742 15.8789Z" fill="white"/>
<path fill-rule="evenodd" clip-rule="evenodd" d="M37.5469 21.9961C38.0391 22.2305 39.2227 22.1016 38.9297 21.3399L38.9062 20.9648C38.8008 20.7305 38.5312 20.7891 38.4727 21.0352C38.4492 21.1055 38.5078 21.2344 38.4258 21.2695C38.3906 21.3164 38.2266 21.293 38.2383 21.082C38.2383 21.0117 38.1914 20.9297 38.1562 20.8828C38.1211 20.8711 38.1094 20.8594 38.0391 20.8594C37.9805 20.8594 37.9805 20.8828 37.9453 20.9414C37.9219 21 37.9102 21.0586 37.9102 21.1289C37.8984 21.1992 37.8633 21.2227 37.8047 21.2461C37.7461 21.2461 37.7578 21.2461 37.7109 21.2109C37.6758 21.1758 37.6406 21.1641 37.6406 21.1055L37.6055 20.918C37.582 20.8828 37.5352 20.8594 37.4883 20.8477C37.2187 20.8477 37.1953 21.1524 37.207 21.2695C37.1953 21.293 37.1836 21.8555 37.5586 21.9961H37.5469ZM45.9844 19.4649C46.4766 19.6992 47.4023 19.5938 47.3672 18.8086L47.3437 18.4336C47.2383 18.1992 46.9687 18.2578 46.9102 18.4922C46.8867 18.5742 46.9453 18.7031 46.8633 18.75C46.8281 18.7852 46.6641 18.7617 46.6758 18.5391C46.6758 18.4688 46.6289 18.3984 46.5937 18.3516C46.5586 18.3281 46.5469 18.3281 46.4766 18.3281C46.418 18.3281 46.418 18.3516 46.3828 18.4102L46.3477 18.5859C46.3359 18.668 46.3008 18.7031 46.2422 18.7031C46.1836 18.7031 46.1953 18.7031 46.1484 18.6797C46.1133 18.6445 46.0781 18.6328 46.0781 18.5742C46.0781 18.5156 46.0664 18.4219 46.043 18.375C46.0195 18.3399 45.9727 18.3281 45.9258 18.3164C45.6562 18.3164 45.6328 18.6211 45.6445 18.7383C45.6328 18.7617 45.6211 19.3125 45.9961 19.4649H45.9844ZM50.3555 25.8281C49.5 26.8008 49.875 28.4063 50.0742 28.7578C50.3555 29.3203 50.5781 29.6836 51.1289 29.9649C51.6328 30.3281 52.0312 30.1055 52.2422 29.8477C52.7461 29.3203 52.7578 27.9727 52.9922 27.7149C53.1562 27.2227 53.5781 27.3047 53.7773 27.5273C53.9637 27.7919 54.2136 28.0055 54.5039 28.1484C54.9727 28.5586 55.5352 28.6406 56.0977 28.2656C56.4727 28.043 56.7187 27.7734 56.9414 27.2227C57.1758 26.5664 57.0586 23.5195 57 21.7149L56.5078 19.1953C56.5078 19.1719 56.4492 18 56.3906 17.7305C56.3906 17.6133 56.3555 17.5781 56.4727 17.5899C56.6016 17.707 56.6133 17.707 56.707 17.7422C56.8242 17.7656 56.9414 17.543 56.8594 17.3555L55.6875 15.1758C55.5937 15.082 55.4648 14.9883 55.3125 15.1992C55.2226 15.2806 55.1511 15.3801 55.1026 15.4913C55.0541 15.6024 55.0298 15.7225 55.0312 15.8438C55.0664 16.3594 55.1484 16.8867 55.1836 17.4024L55.6523 20.0508C55.8047 21.9258 55.8398 23.4727 55.9922 25.3594C55.9687 26.1563 55.7227 26.8477 55.4883 26.9531C55.4883 26.9531 55.1367 27.1524 54.9023 26.9297C54.7266 26.8594 54.0352 25.7695 54.0352 25.7695C53.6836 25.4531 53.4492 25.5352 53.2031 25.7695C52.5 26.4492 52.1953 27.6914 51.7148 28.5586C51.5977 28.7578 51.2461 28.9102 50.8711 28.5469C49.9102 27.2227 50.4727 25.3477 50.3555 25.8281ZM46.207 14.8477C46.6523 15.0234 46.957 15.9258 46.8633 16.3711C46.7695 16.8984 46.5352 17.4844 46.3711 17.4141C46.1836 17.3438 46.4883 16.875 46.3125 16.3828C46.2187 16.0547 45.6094 15.4688 45.6797 15.3047C45.5625 14.9414 45.9375 14.7774 46.207 14.8359V14.8477Z" fill="white"/>
<path fill-rule="evenodd" clip-rule="evenodd" d="M51.7852 26.3672C51.8672 25.2891 51.7148 24.6328 51.6914 24C51.668 23.3672 50.9766 18.5391 50.8359 18.0703C50.6602 17.1562 51.5039 17.9531 51.4102 17.4141C51.1172 16.7578 50.4023 15.7852 50.1797 15.2109C50.0391 14.9766 50.0977 14.7422 49.793 15.1523C49.5306 15.8715 49.4383 16.6416 49.5234 17.4023C50.25 21.1875 50.9883 24.3281 50.8711 27.9258C51.2227 27.9258 51.6094 27.1406 51.7852 26.3672ZM59.332 16.3711C59.7422 16.5703 59.9766 17.6953 59.9297 18.0117C59.8477 18.5977 59.6367 19.2305 59.4844 19.1484C59.3086 19.0781 59.5195 18.2812 59.4375 18.0352C59.3437 17.6836 58.793 17.0508 58.8516 16.8633C58.7344 16.4648 59.0859 16.3008 59.332 16.3711ZM29.3672 24.3281C29.7539 24.4805 29.9883 25.3008 29.9531 25.5352C29.8594 25.9687 29.6602 26.4375 29.5078 26.3672C29.3555 26.3203 29.543 25.7344 29.4727 25.5469C29.4375 25.1133 28.8984 24.8789 28.9102 24.6914C28.8164 24.3398 29.1445 24.2812 29.3789 24.3281H29.3672Z" fill="white"/>
<path fill-rule="evenodd" clip-rule="evenodd" d="M38.6953 25.5703C39.1875 25.5938 39.4336 25.9922 38.9766 26.1563C38.5078 26.3086 38.0742 26.4375 38.0625 27.0938C38.2383 28.0313 37.8281 27.7031 37.5938 27.5859C37.3125 27.375 36.5156 26.8828 36.3984 25.8281C36.3867 25.582 36.5859 25.3594 36.9023 25.3594C37.3711 25.4883 38.0742 25.5 38.6953 25.5703Z" fill="#165D31"/>
<path fill-rule="evenodd" clip-rule="evenodd" d="M19.0664 14.5781C19.6289 14.7422 19.6641 15.5859 19.6289 15.832C19.5469 16.2773 19.3477 16.7578 19.207 16.6992C19.043 16.6406 19.207 16.0312 19.125 15.8437C19.043 15.5859 18.5625 15.0937 18.6094 14.9531C18.5039 14.6601 18.8438 14.5195 19.0664 14.5781ZM30.3047 18.5156C29.8594 18.75 29.6953 19.4531 29.9648 19.875C30.2227 20.2266 30.6211 20.0976 30.668 20.0976C31.1016 20.1445 31.3594 19.2891 31.3594 19.2891C31.3594 19.2891 31.3711 19.0547 30.8672 19.5117C30.6445 19.5469 30.6328 19.4648 30.5742 19.3477C30.5206 19.1245 30.5411 18.89 30.6328 18.6797C30.7148 18.4687 30.5508 18.375 30.3047 18.5156ZM33.5859 14.25C33.3516 14.4023 32.918 14.8594 32.9063 15.375C32.8945 15.668 32.8359 15.668 33.0234 15.8437C33.1758 16.0547 33.3047 16.043 33.5859 15.8906C33.656 15.8465 33.7162 15.7883 33.7626 15.7197C33.809 15.6511 33.8406 15.5736 33.8555 15.4922C33.9258 15.1641 33.5039 15.6562 33.457 15.2812C33.3633 14.9297 33.6328 14.7891 33.8906 14.4609C33.8906 14.2266 33.8906 14.0742 33.5742 14.25H33.5859ZM36.2109 14.7187C36.1076 15.1455 36.0448 15.581 36.0234 16.0195C35.9531 16.3476 36.375 16.4883 36.5508 16.0664C36.832 15.3047 36.832 14.9766 36.8555 14.6601C36.7734 14.1562 36.4336 14.168 36.2109 14.7187ZM52.8516 23.1914C52.8984 23.1328 55.1953 21.5039 55.1953 21.5039C55.4297 21.4219 55.3711 22.3477 55.2656 22.3359C54.5533 23.0224 53.734 23.5884 52.8398 24.0117C52.7227 24.0937 52.6172 23.3906 52.8398 23.1914H52.8516ZM54.9258 23.168C55.3359 23.3672 55.5 24.5508 55.4531 24.8672C55.4531 25.5 55.0664 25.9922 54.9023 25.9219C54.7383 25.8398 54.9258 25.1367 54.8438 24.8906C54.75 24.5391 54.4102 23.8945 54.4688 23.707C54.3516 23.3086 54.6797 23.0976 54.9375 23.168H54.9258ZM41.332 28.2539C41.5221 28.032 41.7431 27.8386 41.9883 27.6797C42.2227 27.5625 42.4336 27.7734 42.4219 27.7617C42.457 27.9961 42.2813 28.1953 42.3398 28.5C42.3867 28.6172 42.4219 28.7578 42.6445 28.7109C43.0078 28.418 43.3477 28.3945 43.6992 28.3828C43.9922 28.3945 44.0039 28.875 43.8164 28.875C43.1484 29.0156 42.8555 29.2031 42.375 29.3789C42.1406 29.5195 41.9531 29.3437 41.9531 29.332C41.9531 29.3203 41.8242 29.2031 41.9063 28.8984C41.9297 28.6641 41.8359 28.5234 41.625 28.5469C41.4844 28.6406 41.3438 28.6875 41.2734 28.5117C41.2383 28.3945 41.2266 28.3242 41.332 28.2539ZM57.3398 28.8867C57.4336 29.0039 57.5039 29.1211 57.3281 29.332L56.8945 29.707C56.8242 29.8242 56.7773 30.0351 57.0117 30.0937C57.4336 30.2109 58.418 29.5664 58.418 29.5547C58.582 29.4375 58.5352 29.2031 58.5117 29.2031C58.418 29.0977 58.207 29.168 58.0664 29.1445C57.9961 29.1445 57.7734 29.1211 57.8789 28.9101C57.9576 28.8066 58.0208 28.6921 58.0664 28.5703C58.125 28.4297 58.0664 28.3359 57.832 28.2539C57.5859 28.207 57.4805 28.2305 57.2109 28.2539C57.0703 28.2773 57.0234 28.3476 56.9883 28.5234C57 28.793 57.1641 28.7812 57.3398 28.875V28.8867Z" fill="white"/>
<path fill-rule="evenodd" clip-rule="evenodd" d="M41.4141 22.2305C41.3555 22.3476 41.1445 22.3476 40.9453 22.2305C40.7461 22.1133 40.6289 21.9258 40.6992 21.8203C40.7695 21.7148 40.9688 21.7148 41.168 21.8203C41.3672 21.9258 41.4727 22.125 41.4141 22.2305ZM30.9844 15.9492C30.8672 15.9844 30.7031 15.8789 30.6328 15.7148C30.5625 15.5508 30.5977 15.4101 30.7148 15.375C30.832 15.3398 30.9844 15.457 31.0664 15.6094C31.1484 15.7617 31.1016 15.9258 30.9727 15.9609L30.9844 15.9492ZM51.6211 43.9453C52.7227 43.9922 53.7539 43.9453 54.8438 44.0039C55.043 44.1797 54.9023 44.5898 54.7734 44.5664L53.8594 44.5312C53.8477 44.1797 52.957 44.2383 52.9805 44.543C52.5 44.6016 52.0664 44.5312 51.5742 44.5078C51.4336 44.332 51.457 44.0156 51.6211 43.9453Z" fill="#165D31"/>
</g>
</svg>
